<?xml version="1.0" standalone="no"?>
<!DOCTYPE svg PUBLIC "-//W3C//DTD SVG 20010904//EN"
 "http://www.w3.org/TR/2001/REC-SVG-20010904/DTD/svg10.dtd">
<svg version="1.0" xmlns="http://www.w3.org/2000/svg"
 width="395.000000pt" height="395.000000pt" viewBox="0 0 395.000000 395.000000"
 preserveAspectRatio="xMidYMid meet">
<metadata>
Created by potrace 1.11, written by Peter Selinger 2001-2013
</metadata>
<g transform="translate(0.000000,395.000000) scale(0.100000,-0.100000)"
fill="#000000" stroke="none">
<path d="M1696 3869 c-2 -8 -9 -42 -15 -77 -14 -89 -30 -116 -67 -120 -37 -4
-126 -72 -273 -210 -57 -53 -126 -114 -153 -135 -51 -38 -142 -70 -231 -82
-54 -7 -54 -9 -13 -95 l22 -45 -67 -60 c-37 -33 -67 -63 -68 -67 -1 -3 16 -9
37 -13 61 -10 68 -18 45 -51 -42 -59 -65 -167 -79 -364 -7 -94 -7 -95 -44
-127 -66 -57 -70 -83 -70 -439 0 -313 0 -313 25 -370 14 -32 46 -79 70 -105
l45 -48 0 -105 c0 -58 7 -135 15 -173 12 -58 109 -349 135 -408 5 -11 30 -69
55 -130 56 -133 122 -243 175 -287 41 -36 208 -131 269 -153 20 -8 61 -24 91
-36 47 -18 80 -22 231 -26 213 -6 256 3 407 84 127 68 167 102 231 198 46 69
149 297 197 435 12 36 40 108 61 160 36 89 42 97 89 125 27 17 76 58 110 91
57 58 65 72 140 250 77 186 78 190 78 274 -1 101 -27 173 -81 221 -33 28 -35
33 -29 72 9 52 46 126 92 182 63 78 91 236 65 371 -8 40 -7 41 24 53 42 15 60
56 52 121 -7 60 -64 145 -176 262 l-74 78 89 91 c49 50 80 89 69 86 -106 -31
-277 -48 -289 -29 -3 5 17 30 44 57 27 27 47 52 45 55 -3 4 -53 11 -112 15
l-108 7 -120 88 c-187 137 -217 171 -229 265 -16 122 -23 128 -62 63 -14 -24
-36 -61 -48 -82 l-24 -40 -26 51 c-14 29 -29 54 -34 57 -4 2 -30 -22 -56 -55
-27 -33 -52 -57 -56 -52 -3 4 -19 40 -35 78 -16 39 -30 72 -32 74 -2 3 -40
-31 -84 -75 l-80 -79 -26 30 c-103 119 -143 158 -147 144z m249 -908 c0 -1 12
-4 26 -6 36 -5 89 -33 95 -50 3 -8 11 -12 17 -10 26 9 72 -95 98 -222 7 -35
17 -63 21 -63 5 0 16 10 26 22 9 11 32 39 51 60 l35 39 18 -53 c11 -29 26 -72
34 -95 l16 -43 49 4 c50 4 83 21 73 37 -3 5 -3 9 0 9 6 0 35 -62 56 -120 8
-19 19 -42 27 -51 7 -9 10 -19 6 -22 -3 -4 -1 -7 6 -7 7 0 10 -4 7 -8 -2 -4 8
-9 23 -10 21 -2 39 9 73 43 25 24 48 42 52 40 3 -3 4 -2 1 2 -9 11 17 33 39
33 14 0 17 3 8 8 -9 7 -8 13 8 27 11 10 20 13 20 7 0 -7 -6 -12 -12 -12 -10 0
-10 -2 -1 -8 8 -5 10 -33 7 -87 -6 -99 -5 -256 1 -310 3 -22 6 -59 7 -82 1
-24 5 -43 8 -43 3 0 7 -21 8 -47 1 -27 3 -61 4 -78 2 -55 -2 -86 -11 -81 -5 4
-7 -4 -3 -16 3 -13 1 -19 -5 -15 -6 4 -10 -1 -10 -11 1 -30 -15 -92 -24 -92
-5 0 -6 -7 -3 -15 4 -8 2 -15 -4 -15 -5 0 -8 -11 -7 -25 2 -14 -1 -27 -6 -31
-5 -3 -7 -10 -4 -15 4 -5 2 -9 -3 -9 -6 0 -8 -10 -4 -22 3 -13 1 -19 -5 -15
-6 4 -11 1 -10 -6 1 -34 -4 -58 -12 -53 -4 3 -6 -6 -3 -21 4 -19 2 -24 -8 -18
-9 5 -11 4 -6 -3 4 -7 4 -17 0 -24 -4 -7 -9 -26 -11 -43 -2 -16 -8 -31 -13
-33 -5 -2 -6 -10 -3 -19 4 -9 2 -14 -3 -10 -6 3 -10 -4 -10 -16 1 -35 -27
-127 -38 -127 -5 0 -7 -3 -3 -6 3 -4 0 -19 -8 -35 -9 -16 -16 -40 -17 -54 -1
-14 -5 -25 -9 -25 -4 0 -7 -6 -6 -12 1 -35 -4 -49 -15 -42 -7 4 -8 3 -4 -4 4
-6 2 -19 -4 -29 -15 -26 -55 -137 -52 -145 1 -5 -2 -8 -8 -8 -6 0 -9 -3 -8 -7
5 -19 -44 -141 -69 -173 -6 -8 -12 -18 -13 -22 -5 -25 -26 -68 -32 -68 -4 0
-8 -5 -8 -11 0 -11 -63 -74 -116 -117 -16 -12 -58 -36 -94 -54 -66 -32 -70
-33 -105 -42 -11 -2 -31 -9 -45 -14 -14 -5 -95 -8 -180 -7 -140 3 -162 6 -225
30 -38 15 -78 29 -87 32 -10 3 -18 10 -18 15 0 5 -4 7 -9 4 -10 -7 -61 16 -61
27 0 5 -4 5 -10 2 -5 -3 -10 -1 -10 5 0 6 -5 8 -10 5 -6 -3 -10 -1 -10 5 0 6
-4 8 -10 5 -5 -3 -10 -2 -10 4 0 5 -8 12 -17 15 -19 6 -84 64 -118 105 -13 16
-15 22 -5 17 13 -6 13 -5 0 6 -27 23 -62 87 -54 99 5 8 3 9 -6 4 -10 -6 -12
-4 -7 9 4 9 3 15 -1 12 -5 -3 -17 18 -27 47 -17 51 -38 103 -57 142 -5 12 -10
27 -12 35 -1 8 -8 25 -14 38 -7 12 -10 22 -6 22 3 0 -1 11 -10 25 -9 14 -16
31 -15 38 2 6 -5 29 -14 50 -9 21 -16 41 -16 45 1 4 0 9 -1 12 -6 17 -14 57
-26 132 -8 54 -13 278 -6 278 4 0 8 24 9 53 1 52 9 142 12 142 1 0 4 25 7 55
2 30 6 73 9 95 3 22 8 69 10 105 6 76 9 92 16 105 3 6 5 24 4 40 -2 17 0 35 3
40 4 6 7 24 8 40 3 44 14 106 21 118 3 6 7 24 9 41 1 17 5 42 8 56 12 48 17
75 22 110 3 19 7 44 9 55 2 11 4 28 4 38 1 10 5 15 11 12 5 -3 7 0 4 9 -7 18
16 62 55 102 16 18 27 34 24 37 -3 3 4 3 14 1 14 -4 34 11 73 55 30 33 58 57
62 55 4 -3 8 -1 8 4 0 8 11 13 47 22 2 0 24 10 50 21 26 11 63 24 83 28 29 6
385 8 385 2z m-1055 -696 c8 0 14 -6 13 -12 -2 -7 1 -13 6 -13 13 0 34 -57 26
-70 -4 -7 -9 -39 -11 -73 -2 -34 -5 -89 -8 -122 -3 -33 -7 -93 -8 -132 -2 -40
-6 -73 -9 -73 -4 0 -5 -14 -3 -31 2 -17 1 -36 -3 -42 -4 -6 -7 -23 -7 -38 -1
-40 -12 -44 -33 -13 -16 25 -18 56 -19 313 -1 245 1 289 14 304 9 9 18 14 21
10 3 -5 13 -8 21 -8z m2116 -414 c-4 -5 -2 -11 3 -13 13 -4 25 -94 14 -110 -4
-7 -8 -20 -9 -28 -1 -8 -2 -25 -3 -38 0 -13 -5 -21 -10 -18 -5 4 -7 -4 -3 -16
3 -13 1 -19 -5 -15 -7 5 -9 -1 -5 -15 4 -16 2 -19 -8 -13 -9 5 -11 4 -6 -3 4
-7 4 -18 -1 -24 -4 -7 -9 -22 -10 -32 -2 -11 -8 -25 -14 -33 -6 -7 -9 -13 -5
-13 3 0 -6 -23 -20 -51 -27 -51 -100 -137 -108 -128 -8 8 5 49 14 44 4 -2 6 7
4 20 -1 14 4 31 11 39 8 7 12 16 8 19 -3 3 2 20 10 37 9 16 11 27 5 24 -5 -4
-4 4 3 17 7 13 14 27 15 32 1 4 2 8 3 10 2 1 4 13 7 26 2 14 9 29 14 36 5 6
11 24 14 40 3 17 8 41 12 55 3 14 8 41 11 60 3 19 10 38 15 41 5 3 9 10 9 15
-2 21 11 44 25 44 8 0 13 -4 10 -9z"/>
<path d="M1436 2183 c-2 -2 -23 -6 -47 -9 -24 -3 -47 -11 -51 -17 -4 -6 -10
-9 -13 -5 -4 4 -27 -5 -51 -18 -24 -14 -44 -22 -44 -19 0 7 -24 -12 -62 -49
-50 -50 -33 -56 112 -40 68 8 193 8 240 1 73 -12 105 -19 110 -25 3 -4 14 -7
25 -7 11 0 19 -5 18 -10 -2 -14 97 -12 121 2 14 8 19 22 19 58 0 45 -16 71
-35 59 -4 -3 -8 -2 -8 3 0 4 -17 9 -38 11 -20 1 -39 7 -40 12 -2 6 -8 8 -13 4
-5 -3 -15 -2 -21 3 -7 4 -20 8 -28 10 -8 1 -31 5 -50 9 -19 4 -38 7 -42 6 -5
-1 -8 3 -8 9 0 6 -7 8 -16 5 -9 -3 -21 -3 -27 1 -13 8 -45 12 -51 6z"/>
<path d="M2159 2059 c-8 -30 -5 -88 5 -101 16 -22 83 -31 219 -31 59 1 107 -2
107 -6 0 -3 17 -5 38 -4 45 2 74 -5 67 -18 -3 -5 1 -6 9 -3 9 3 16 1 16 -5 0
-6 7 -11 15 -11 7 0 19 -8 24 -17 6 -10 11 -15 11 -11 0 4 17 -10 38 -32 38
-40 51 -41 70 -4 9 17 8 24 -3 34 -13 11 -31 66 -27 83 2 5 -2 6 -8 2 -5 -3
-10 -1 -10 5 0 14 -60 71 -100 94 -28 16 -61 19 -251 24 -121 2 -219 3 -220 1z"/>
<path d="M1464 1988 c-3 -5 -13 -8 -22 -7 -10 1 -30 -3 -46 -10 -16 -6 -39
-13 -50 -14 -12 -1 -23 -5 -26 -8 -3 -3 -31 -16 -63 -28 -31 -13 -60 -27 -62
-31 -10 -17 7 -38 26 -33 10 3 26 0 34 -7 8 -7 15 -9 15 -5 0 4 10 1 23 -7 21
-15 82 -37 102 -39 6 0 19 -8 29 -17 12 -11 16 -12 11 -3 -6 10 -4 12 6 5 23
-14 39 -16 159 -18 117 -1 151 8 134 36 -16 26 -70 94 -92 116 -12 12 -22 27
-22 33 0 5 -4 7 -10 4 -5 -3 -10 0 -10 7 0 8 -8 14 -17 15 -10 1 -40 6 -66 11
-28 5 -50 5 -53 0z m126 -95 c12 -16 18 -21 14 -13 -10 22 31 -22 45 -47 11
-21 9 -22 -52 -21 -76 1 -81 4 -62 31 8 12 15 34 15 49 0 35 12 35 40 1z
m-204 -18 c6 -19 8 -33 5 -31 -3 2 -24 12 -46 21 l-40 17 30 14 c40 18 39 18
51 -21z"/>
<path d="M2360 1895 c-25 -7 -54 -17 -65 -23 -27 -14 -58 -26 -67 -24 -5 1 -8
-2 -8 -8 0 -5 -3 -9 -7 -8 -19 4 -63 -27 -63 -44 0 -10 4 -18 8 -18 8 0 21
-10 68 -49 7 -5 15 -7 18 -4 3 4 6 1 6 -5 0 -7 10 -12 23 -12 13 0 29 -6 35
-12 15 -15 359 -21 368 -7 6 10 -87 117 -103 118 -7 1 -13 5 -13 9 0 5 -7 17
-16 28 -8 10 -12 12 -9 4 4 -8 -7 0 -24 19 -17 18 -31 31 -31 27 0 -4 -10 -1
-22 6 -31 16 -45 16 -98 3z m-57 -112 c3 -16 4 -29 3 -30 -1 -1 -19 6 -41 16
l-40 19 25 10 c39 17 47 14 53 -15z m235 -18 l46 -45 -77 0 c-76 0 -77 0 -59
20 17 20 18 24 21 55 2 25 20 17 69 -30z"/>
<path d="M1563 1268 c-23 -44 -23 -85 -1 -110 9 -11 15 -25 12 -30 -3 -4 -2
-7 3 -6 14 4 53 -13 53 -22 0 -5 7 -7 15 -4 8 4 15 1 15 -5 0 -6 7 -11 15 -11
8 0 15 -5 15 -12 0 -6 3 -9 6 -5 3 3 26 -14 50 -39 24 -24 48 -43 52 -43 4 1
10 0 15 -1 22 -7 107 -4 107 4 0 5 3 7 6 3 8 -8 60 19 97 49 16 13 34 21 39
18 7 -4 8 -2 4 4 -6 11 6 16 27 13 4 0 7 4 7 10 0 6 7 9 15 5 8 -3 15 -1 15 4
0 5 15 16 33 24 19 7 34 20 35 27 0 8 3 24 5 35 6 25 -18 64 -39 64 -12 0 -19
-19 -15 -44 7 -35 -32 -63 -97 -68 -6 -1 -10 -3 -7 -6 5 -5 -43 -42 -90 -68
-35 -20 -111 -26 -140 -11 -11 6 -35 25 -52 44 -18 18 -33 31 -33 28 0 -3 -15
5 -33 19 -18 14 -43 27 -55 29 -12 2 -24 6 -27 9 -12 11 -15 59 -6 76 10 19
-2 52 -19 52 -5 0 -17 -15 -27 -32z"/>
<path d="M1424 854 c-11 -15 -25 -32 -32 -40 -7 -8 -10 -14 -6 -14 3 0 2 -6
-4 -13 -16 -19 2 -40 27 -32 11 3 21 11 21 16 0 5 5 9 11 9 5 0 7 -4 4 -10 -3
-5 0 -7 8 -4 8 3 22 -2 30 -11 9 -8 20 -14 24 -13 4 1 18 -3 31 -10 12 -7 22
-10 22 -7 0 3 13 -1 29 -9 16 -9 31 -12 35 -9 3 4 6 2 6 -4 0 -9 27 -21 65
-28 6 -1 13 -3 18 -5 4 -1 15 -3 25 -4 9 -1 23 -5 31 -10 11 -7 90 -9 238 -5
14 1 20 6 16 12 -4 6 0 8 11 4 9 -4 33 0 52 8 19 8 34 11 34 8 0 -3 6 -1 13 5
11 9 73 29 120 38 10 2 29 -1 43 -6 25 -10 29 -4 24 30 -4 31 -62 110 -81 110
-22 0 -27 -38 -7 -58 9 -9 8 -12 -5 -12 -9 0 -17 -5 -17 -10 0 -6 -6 -10 -12
-9 -7 2 -33 -3 -58 -11 -25 -7 -52 -14 -60 -16 -8 -1 -33 -8 -55 -14 -22 -6
-51 -13 -65 -15 -14 -1 -25 -4 -25 -5 0 -5 -101 -7 -109 -2 -5 3 -24 6 -42 7
-18 0 -39 6 -46 13 -8 6 -17 9 -20 7 -3 -3 -18 0 -34 6 -16 7 -31 13 -34 14
-71 24 -180 71 -180 78 0 4 4 7 8 7 4 0 8 8 8 18 0 28 -41 26 -62 -4z"/>
<path d="M1550 581 c0 -14 6 -21 19 -21 11 0 22 -4 26 -10 3 -5 13 -6 22 -3
11 4 14 3 9 -5 -7 -11 13 -17 38 -13 4 1 14 -3 20 -9 7 -5 16 -7 19 -4 3 4 14
3 24 -1 27 -12 67 -15 191 -18 61 -1 112 1 112 5 0 4 8 5 19 3 25 -5 80 36 78
58 -1 15 -8 17 -44 12 -24 -3 -53 -9 -66 -14 -23 -9 -194 -6 -237 4 -14 3 -45
8 -70 11 -24 3 -48 8 -53 11 -5 3 -31 8 -58 10 -44 4 -49 3 -49 -16z"/>
</g>
</svg>
