<?xml version="1.0" standalone="no"?>
<!DOCTYPE svg PUBLIC "-//W3C//DTD SVG 20010904//EN"
 "http://www.w3.org/TR/2001/REC-SVG-20010904/DTD/svg10.dtd">
<svg version="1.0" xmlns="http://www.w3.org/2000/svg"
 width="395.000000pt" height="395.000000pt" viewBox="0 0 395.000000 395.000000"
 preserveAspectRatio="xMidYMid meet">
<metadata>
Created by potrace 1.11, written by Peter Selinger 2001-2013
</metadata>
<g transform="translate(0.000000,395.000000) scale(0.100000,-0.100000)"
fill="#000000" stroke="none">
<path d="M1696 3869 c-2 -8 -9 -42 -15 -77 -14 -89 -30 -116 -67 -120 -37 -4
-126 -72 -273 -210 -57 -53 -126 -114 -153 -135 -51 -38 -142 -70 -231 -82
-54 -7 -54 -9 -13 -95 l22 -45 -67 -60 c-37 -33 -67 -63 -68 -67 -1 -3 16 -9
37 -13 61 -10 68 -18 45 -51 -42 -59 -65 -167 -79 -364 -7 -94 -7 -95 -45
-128 -66 -57 -71 -87 -71 -440 l0 -308 26 -58 c15 -33 47 -81 71 -107 l45 -48
0 -105 c0 -58 7 -135 15 -173 12 -58 109 -349 135 -408 5 -11 30 -69 55 -130
56 -133 122 -243 175 -287 41 -36 208 -131 269 -153 20 -8 61 -24 91 -36 47
-18 80 -22 231 -26 213 -6 256 3 407 84 127 68 167 102 231 198 46 69 149 297
197 435 12 36 40 108 61 160 36 89 42 97 89 125 27 17 76 58 110 91 57 58 65
72 140 250 77 186 78 190 78 274 -1 101 -27 173 -81 221 -33 28 -35 33 -29 72
9 52 46 126 92 182 63 78 91 236 65 371 -8 40 -7 41 24 53 42 15 60 56 52 121
-7 60 -64 145 -176 262 l-74 78 89 91 c49 50 80 89 69 86 -106 -31 -277 -48
-289 -29 -3 5 17 30 44 57 27 27 47 52 45 55 -3 4 -53 11 -112 15 l-108 7
-120 88 c-187 137 -217 171 -229 265 -16 122 -23 128 -62 63 -14 -24 -36 -61
-48 -82 l-24 -40 -26 51 c-14 29 -29 54 -34 57 -4 2 -30 -22 -56 -55 -27 -33
-52 -57 -56 -52 -3 4 -19 40 -35 78 -16 39 -30 72 -32 74 -2 3 -40 -31 -84
-75 l-80 -79 -26 30 c-103 119 -143 158 -147 144z m-35 -1206 c13 -16 12 -17
-3 -4 -17 13 -22 21 -14 21 2 0 10 -8 17 -17z m889 -1793 c0 -5 -4 -10 -10
-10 -5 0 -10 5 -10 10 0 6 5 10 10 10 6 0 10 -4 10 -10z m-5 -28 c-5 -4 -11
-14 -13 -22 -2 -8 -7 -21 -12 -30 -7 -12 -9 -10 -7 8 1 12 5 22 9 22 4 0 7 3
7 8 -3 15 1 22 14 22 7 0 8 -3 2 -8z m-955 -48 c0 -8 -19 -13 -24 -6 -3 5 1 9
9 9 8 0 15 -2 15 -3z m38 -19 c-3 -3 -9 2 -12 12 -6 14 -5 15 5 6 7 -7 10 -15
7 -18z m55 -20 c-3 -9 -8 -14 -10 -11 -3 3 -2 9 2 15 9 16 15 13 8 -4z m181
-491 c3 -8 2 -12 -4 -9 -6 3 -10 10 -10 16 0 14 7 11 14 -7z"/>
</g>
</svg>
