<?xml version="1.0" standalone="no"?>
<!DOCTYPE svg PUBLIC "-//W3C//DTD SVG 20010904//EN"
 "http://www.w3.org/TR/2001/REC-SVG-20010904/DTD/svg10.dtd">
<svg version="1.0" xmlns="http://www.w3.org/2000/svg"
 width="400.000000pt" height="400.000000pt" viewBox="0 0 400.000000 400.000000"
 preserveAspectRatio="xMidYMid meet">
<metadata>
Created by potrace 1.11, written by Peter Selinger 2001-2013
</metadata>
<g transform="translate(0.000000,400.000000) scale(0.100000,-0.100000)"
fill="#000000" stroke="none">
<path d="M138 3933 l-3 -68 -67 -3 -68 -3 0 -1859 0 -1859 67 -3 68 -3 3 -67
3 -68 1859 0 1859 0 3 68 3 67 68 3 67 3 0 1859 0 1859 -67 3 -68 3 -3 68 -3
67 -1859 0 -1859 0 -3 -67z m2431 -1946 c206 -485 376 -885 378 -889 2 -5 -97
-8 -220 -8 l-223 0 -233 568 c-128 312 -236 570 -240 575 -4 4 -113 -251 -242
-568 l-234 -575 -222 0 c-123 0 -223 3 -223 7 0 4 169 404 377 890 l376 883
166 0 166 0 374 -883z"/>
</g>
</svg>
