<?xml version="1.0" standalone="no"?>
<!DOCTYPE svg PUBLIC "-//W3C//DTD SVG 20010904//EN"
 "http://www.w3.org/TR/2001/REC-SVG-20010904/DTD/svg10.dtd">
<svg version="1.0" xmlns="http://www.w3.org/2000/svg"
 width="400.000000pt" height="400.000000pt" viewBox="0 0 400.000000 400.000000"
 preserveAspectRatio="xMidYMid meet">
<metadata>
Created by potrace 1.11, written by Peter Selinger 2001-2013
</metadata>
<g transform="translate(0.000000,400.000000) scale(0.100000,-0.100000)"
fill="#000000" stroke="none">
<path d="M0 2000 l0 -2000 2000 0 2000 0 0 2000 0 2000 -2000 0 -2000 0 0
-2000z m2835 48 c274 -777 501 -1419 503 -1425 3 -10 -77 -13 -381 -13 -219 0
-388 4 -391 9 -3 5 -136 404 -295 887 l-289 878 -175 -535 c-97 -294 -227
-691 -290 -884 l-115 -350 -386 -3 c-332 -2 -386 0 -386 12 0 14 984 2809 996
2827 3 5 164 9 358 9 l353 0 498 -1412z"/>
</g>
</svg>
