<?xml version="1.0" standalone="no"?>
<!DOCTYPE svg PUBLIC "-//W3C//DTD SVG 20010904//EN"
 "http://www.w3.org/TR/2001/REC-SVG-20010904/DTD/svg10.dtd">
<svg version="1.0" xmlns="http://www.w3.org/2000/svg"
 width="384.000000pt" height="384.000000pt" viewBox="0 0 384.000000 384.000000"
 preserveAspectRatio="xMidYMid meet">
<metadata>
Created by potrace 1.11, written by Peter Selinger 2001-2013
</metadata>
<g transform="translate(0.000000,384.000000) scale(0.100000,-0.100000)"
fill="#000000" stroke="none">
<path d="M72 3707 c-10 -23 -12 -399 -10 -1823 l3 -1793 23 -23 23 -23 1809 0
1809 0 23 23 23 23 0 1809 c0 1434 -3 1812 -12 1822 -10 9 -13 -305 -13 -1571
0 -1471 -1 -1583 -17 -1577 -9 4 -48 11 -87 16 -39 5 -127 17 -196 26 -73 9
-150 26 -185 40 -34 13 -83 28 -110 34 -57 11 -175 42 -220 58 -16 6 -52 17
-80 26 -169 51 -223 77 -231 114 -4 15 -17 50 -29 77 -12 28 -25 58 -28 68 -8
23 -34 22 -42 -3 -13 -40 -105 -170 -170 -239 -71 -75 -173 -145 -265 -182
-83 -33 -245 -38 -337 -11 -130 40 -301 185 -409 349 -55 82 -74 94 -74 49 0
-13 -7 -29 -15 -36 -8 -7 -19 -30 -25 -51 -6 -21 -21 -47 -35 -57 -22 -17
-231 -91 -345 -121 -25 -7 -92 -26 -150 -42 -208 -58 -286 -77 -360 -84 -41
-4 -100 -13 -130 -20 -30 -8 -70 -17 -87 -20 l-33 -7 -2 1589 c-3 1286 -5
1583 -16 1560z"/>
<path d="M2178 3508 c-8 -13 -20 -37 -27 -55 -7 -18 -20 -38 -28 -45 -16 -13
-15 -14 -58 47 -14 19 -15 19 -26 2 -6 -10 -24 -34 -41 -53 l-30 -34 -29 57
c-16 32 -30 62 -32 67 -2 5 -33 -22 -70 -60 l-67 -68 -80 79 -80 80 0 -51 c0
-65 -17 -114 -39 -114 -38 0 -129 -69 -251 -190 -113 -113 -212 -175 -297
-187 -24 -3 -43 -7 -43 -9 0 -2 11 -28 24 -58 l24 -54 -50 -43 -50 -42 25 -13
c37 -20 40 -40 18 -113 -19 -61 -41 -220 -41 -290 0 -19 13 -45 39 -76 40 -49
61 -101 61 -154 0 -57 21 -122 46 -138 13 -8 27 -12 33 -9 5 4 12 37 15 74 15
163 55 412 75 465 6 15 50 65 98 111 78 75 96 87 168 112 77 28 87 29 265 29
l185 0 43 -28 c34 -22 50 -43 73 -93 16 -35 29 -70 29 -78 0 -8 5 -27 10 -41
l10 -27 40 41 c22 23 40 46 40 51 0 30 19 0 49 -80 19 -50 38 -90 43 -90 4 0
22 13 40 29 42 37 56 30 99 -47 57 -102 52 -101 131 -27 37 36 72 65 77 65 16
0 22 -70 10 -130 -10 -54 -9 -65 10 -118 12 -31 30 -91 39 -132 25 -108 38
-101 87 45 45 133 69 179 119 223 63 55 68 69 55 155 l-11 76 32 27 c30 26 32
31 28 75 -6 58 -72 153 -122 174 -17 7 -46 27 -65 44 -45 40 -38 64 41 135
l61 56 -34 0 c-19 0 -50 -4 -69 -10 -42 -12 -128 -16 -138 -6 -4 4 12 25 36
47 23 22 42 42 42 44 0 3 -46 5 -102 5 -99 0 -104 1 -137 29 -19 17 -64 47
-100 68 -36 21 -87 58 -112 83 -47 47 -59 78 -59 151 0 44 -11 50 -32 17z"/>
</g>
</svg>
