<?xml version="1.0" encoding="utf-8"?>
<!-- Generator: Adobe Illustrator 16.0.0, SVG Export Plug-In . SVG Version: 6.00 Build 0)  -->
<!DOCTYPE svg PUBLIC "-//W3C//DTD SVG 1.1//EN" "http://www.w3.org/Graphics/SVG/1.1/DTD/svg11.dtd">
<svg version="1.1" id="Layer_1" xmlns="http://www.w3.org/2000/svg" xmlns:xlink="http://www.w3.org/1999/xlink" x="0px" y="0px"
	 width="44.5px" height="65.8px" viewBox="0 0 44.5 65.8" style="enable-background:new 0 0 44.5 65.8;" xml:space="preserve">
<polygon points="0,0 0,65.8 22.2,52.8 44.5,65.8 44.5,0 "/>
<path style="fill:#FFFFFF;stroke:#FFFFFF;stroke-miterlimit:10;" d="M30,18c0.1-0.1,0.2-0.1,0.3-0.1c0.1,0,0.2,0,0.3,0.1l3.4,4.8
	c0.2,0.2,0.1,0.5-0.1,0.6l-6.4,3.7c-0.2,0.1-0.4,0.3-0.4,0.5c0,0.1,0.2,0.4,0.4,0.5l4.6,6.4c0,0.1,0.1,0.2,0.1,0.3
	c0,0.2-0.1,0.4-0.3,0.4L27,38.1c-0.1,0.1-0.3,0.1-0.4,0.1c-0.2,0-0.3-0.1-0.4-0.2l-3.9-7.1c-0.1-0.2-0.2-0.4-0.3-0.4
	c-0.2,0-0.3,0.2-0.3,0.4l-4,7.1c-0.2,0.2-0.5,0.3-0.6,0.1l-5-3c-0.2-0.1-0.4-0.4-0.2-0.5l4.8-6.5c0.1-0.2,0.3-0.4,0.3-0.5
	c0-0.1-0.2-0.3-0.5-0.5l-6.3-3.6c-0.2-0.1-0.2-0.3-0.2-0.4c0-0.1,0-0.2,0.1-0.4l3.3-4.6c0.1-0.2,0.3-0.3,0.6-0.2l4.3,3.6
	c0.2,0.1,0.3,0.2,0.4,0.2c0.2,0,0.3-0.3,0.2-0.5l-0.4-7.7c0-0.3,0.2-0.5,0.5-0.5h6c0.3,0,0.5,0.2,0.5,0.5l-0.4,7.7
	c0,0.2,0,0.5,0.2,0.5c0.1,0,0.3-0.2,0.5-0.3L30,18z"/>
</svg>
