<?xml version="1.0" encoding="utf-8"?>
<!-- Generator: Adobe Illustrator 16.0.0, SVG Export Plug-In . SVG Version: 6.00 Build 0)  -->
<!DOCTYPE svg PUBLIC "-//W3C//DTD SVG 1.1//EN" "http://www.w3.org/Graphics/SVG/1.1/DTD/svg11.dtd">
<svg version="1.1" id="Layer_1" xmlns="http://www.w3.org/2000/svg" xmlns:xlink="http://www.w3.org/1999/xlink" x="0px" y="0px"
	 width="32px" height="32px" viewBox="0 0 32 32" enable-background="new 0 0 32 32" xml:space="preserve">
<path d="M23.923,9.331c0.093-0.09,0.185-0.09,0.275-0.09s0.185,0,0.276,0.09l3.402,4.77c0.186,0.18,0.092,0.54-0.092,0.63
	l-6.439,3.689c-0.185,0.092-0.367,0.271-0.367,0.451c0,0.09,0.184,0.359,0.367,0.539l4.6,6.391c0,0.09,0.093,0.18,0.093,0.27
	c0,0.181-0.093,0.359-0.274,0.449L20.887,29.4c-0.092,0.09-0.275,0.09-0.367,0.09c-0.185,0-0.276-0.09-0.369-0.18l-3.863-7.109
	c-0.092-0.18-0.184-0.361-0.276-0.361c-0.184,0-0.276,0.182-0.276,0.361l-3.956,7.109c-0.184,0.18-0.46,0.27-0.644,0.09L6.167,26.43
	c-0.184-0.09-0.368-0.359-0.184-0.539l4.784-6.479c0.092-0.181,0.276-0.359,0.276-0.539c0-0.09-0.184-0.271-0.46-0.451l-6.348-3.599
	c-0.184-0.09-0.184-0.27-0.184-0.45c0-0.09,0-0.18,0.092-0.36l3.312-4.59c0.092-0.18,0.276-0.27,0.552-0.18l4.324,3.6
	c0.184,0.09,0.276,0.18,0.368,0.18c0.184,0,0.276-0.27,0.184-0.45l-0.368-7.739c0-0.27,0.184-0.54,0.46-0.54h5.98
	c0.275,0,0.46,0.18,0.46,0.45l-0.368,7.74c0,0.18,0,0.54,0.184,0.54c0.093,0,0.276-0.18,0.461-0.27L23.923,9.331z"/>
</svg>
