<?xml version="1.0" encoding="utf-8"?>
<!-- Generator: Adobe Illustrator 16.0.0, SVG Export Plug-In . SVG Version: 6.00 Build 0)  -->
<!DOCTYPE svg PUBLIC "-//W3C//DTD SVG 1.1//EN" "http://www.w3.org/Graphics/SVG/1.1/DTD/svg11.dtd" [
	<!ENTITY ns_extend "http://ns.adobe.com/Extensibility/1.0/">
	<!ENTITY ns_ai "http://ns.adobe.com/AdobeIllustrator/10.0/">
	<!ENTITY ns_graphs "http://ns.adobe.com/Graphs/1.0/">
	<!ENTITY ns_vars "http://ns.adobe.com/Variables/1.0/">
	<!ENTITY ns_imrep "http://ns.adobe.com/ImageReplacement/1.0/">
	<!ENTITY ns_sfw "http://ns.adobe.com/SaveForWeb/1.0/">
	<!ENTITY ns_custom "http://ns.adobe.com/GenericCustomNamespace/1.0/">
	<!ENTITY ns_adobe_xpath "http://ns.adobe.com/XPath/1.0/">
]>
<svg version="1.1" id="Layer_1" xmlns:x="&ns_extend;" xmlns:i="&ns_ai;" xmlns:graph="&ns_graphs;"
	 xmlns="http://www.w3.org/2000/svg" xmlns:xlink="http://www.w3.org/1999/xlink" x="0px" y="0px" width="136px" height="27px"
	 viewBox="3.3 3 136 27" style="enable-background:new 3.3 3 136 27;" xml:space="preserve">
<metadata>
	<sfw  xmlns="&ns_sfw;">
		<slices></slices>
		<sliceSourceBounds  y="-1.3" x="-56.9" height="32.7" width="134.1" bottomLeftOrigin="true"></sliceSourceBounds>
		<optimizationSettings>
			<targetSettings  fileFormat="PNG24Format" targetSettingsID="0">
				<PNG24Format  matteColor="#FFFFFF" noMatteColor="false" filtered="false" interlaced="false" transparency="true">
					</PNG24Format>
			</targetSettings>
		</optimizationSettings>
	</sfw>
</metadata>
<path d="M23.9,8.8c0.1-0.1,0.2-0.1,0.3-0.1c0.1,0,0.2,0,0.3,0.1l3.4,4.8c0.2,0.2,0.1,0.5-0.1,0.6l-6.4,3.7C21.2,18,21,18.2,21,18.4
	c0,0.1,0.2,0.4,0.4,0.5l4.6,6.4c0,0.1,0.1,0.2,0.1,0.3c0,0.2-0.1,0.4-0.3,0.4l-4.9,2.9C20.8,29,20.6,29,20.5,29
	c-0.2,0-0.3-0.1-0.4-0.2l-3.9-7.1c-0.1-0.2-0.2-0.4-0.3-0.4c-0.2,0-0.3,0.2-0.3,0.4l-4,7.1c-0.2,0.2-0.5,0.3-0.6,0.1l-5-3
	c0-0.1-0.2-0.3,0-0.5l4.8-6.5c0.1-0.2,0.3-0.4,0.3-0.5c0-0.1-0.2-0.3-0.5-0.5l-6.3-3.6c-0.2-0.1-0.2-0.3-0.2-0.4
	c0-0.1,0-0.2,0.1-0.4l3.3-4.6c0-0.2,0.2-0.2,0.5-0.2l4.3,3.6c0.2,0.1,0.3,0.2,0.4,0.2c0.2,0,0.3-0.3,0.2-0.5l-0.4-7.7
	c0-0.3,0.2-0.5,0.5-0.5h6c0.3,0,0.5,0.2,0.5,0.5L19,12c0,0.2,0,0.5,0.2,0.5c0.1,0,0.3-0.2,0.5-0.3L23.9,8.8z"/>
<text transform="matrix(1.0269 0 0 1 56.6396 25.1348)"><tspan x="0" y="0" style="fill:#333333;stroke:#333333;stroke-width:0.7;stroke-miterlimit:10; font-family:'MyriadPro-Semibold'; font-size:29.4383;">o</tspan><tspan x="16.1" y="0" style="fill:#333333;stroke:#333333;stroke-width:0.7;stroke-miterlimit:10; font-family:'MyriadPro-Semibold'; font-size:29.4383;">w</tspan><tspan x="37.6" y="0" style="fill:#333333;stroke:#333333;stroke-width:0.7;stroke-miterlimit:10; font-family:'MyriadPro-Semibold'; font-size:29.4383;">d</tspan></text>
<text transform="matrix(1.0348 0 0 1 45.5005 25.1348)" style="fill:#333333;stroke:#333333;stroke-width:0.7;stroke-miterlimit:10; font-family:'MyriadPro-Semibold'; font-size:29.4387;">r</text>
<text transform="matrix(1.0348 0 0 1 111.25 25.1348)"><tspan x="0" y="0" style="fill:#222222;stroke:#222222;stroke-width:0.7;stroke-miterlimit:10; font-family:'MyriadPro-Semibold'; font-size:29.4387;">c</tspan><tspan x="12.7" y="0" style="fill:#222222;stroke:#222222;stroke-width:0.7;stroke-miterlimit:10; font-family:'MyriadPro-Semibold'; font-size:29.4387;">c</tspan></text>
<text transform="matrix(1.0348 0 0 1 32.084 25.1348)" style="fill:#222222;stroke:#222222;stroke-width:0.7;stroke-miterlimit:10; font-family:'MyriadPro-Semibold'; font-size:29.4387;">c</text>
</svg>
